<svg width="168" height="30" viewBox="0 0 168 30" fill="none" xmlns="http://www.w3.org/2000/svg">
<path d="M13.04 3.44C5.48 3.44 0.188 8.768 0.188 16.328C0.188 23.888 5.516 29.18 13.076 29.18C19.736 29.18 23.948 24.824 25.244 20.468V14.744H11.852V19.28H19.664C18.728 22.124 16.604 23.744 13.544 23.744C9.116 23.744 6.452 21.008 6.452 16.328C6.452 11.936 9.08 9.128 13.04 9.128C15.344 9.128 17.072 10.028 18.008 11.72H24.812C23.48 6.536 19.088 3.44 13.04 3.44ZM27.4299 18.92C27.4299 25.256 31.3539 29.288 36.2499 29.288C39.2379 29.288 41.3619 27.92 42.4779 26.156V29H48.6339V8.912H42.4779V11.756C41.3979 9.992 39.2739 8.624 36.2859 8.624C31.3539 8.624 27.4299 12.584 27.4299 18.92ZM42.4779 18.956C42.4779 22.16 40.4259 23.924 38.0859 23.924C35.7819 23.924 33.6939 22.124 33.6939 18.92C33.6939 15.716 35.7819 13.988 38.0859 13.988C40.4259 13.988 42.4779 15.752 42.4779 18.956ZM53.0875 29H59.2435V2.36H53.0875V29ZM63.7047 29H69.8607V2.36H63.7047V29ZM74.3218 29H80.4778V8.912H74.3218V29ZM77.4178 6.824C79.5778 6.824 81.0538 5.348 81.0538 3.512C81.0538 1.64 79.5778 0.163998 77.4178 0.163998C75.2218 0.163998 73.7458 1.64 73.7458 3.512C73.7458 5.348 75.2218 6.824 77.4178 6.824Z" fill="#FFA902"/>
<path d="M83.031 8.912L90.159 29H97.755L104.883 8.912H98.331L93.975 23.24L89.619 8.912H83.031ZM106.25 18.92C106.25 25.256 110.174 29.288 115.07 29.288C118.058 29.288 120.182 27.92 121.298 26.156V29H127.454V8.912H121.298V11.756C120.218 9.992 118.094 8.624 115.106 8.624C110.174 8.624 106.25 12.584 106.25 18.92ZM121.298 18.956C121.298 22.16 119.246 23.924 116.906 23.924C114.602 23.924 112.514 22.124 112.514 18.92C112.514 15.716 114.602 13.988 116.906 13.988C119.246 13.988 121.298 15.752 121.298 18.956ZM145.768 29H151.888V17.264C151.888 11.864 148.792 8.696 144.148 8.696C141.448 8.696 139.288 9.884 138.064 11.576V8.912H131.908V29H138.064V18.092C138.064 15.356 139.576 13.844 141.916 13.844C144.256 13.844 145.768 15.356 145.768 18.092V29ZM157.138 22.016C157.138 27.236 160.054 29 164.23 29H167.362V23.78H165.166C163.798 23.78 163.294 23.276 163.294 22.088V14.024H167.326V8.912H163.294V4.016H157.138V8.912H154.69V14.024H157.138V22.016Z" fill="white"/>
</svg>
